<?xml version="1.0" encoding="UTF-8"?>
<svg width="96px" height="83px" viewBox="0 0 96 83" version="1.1" xmlns="http://www.w3.org/2000/svg" xmlns:xlink="http://www.w3.org/1999/xlink">
    <!-- Generator: Sketch 43.2 (39069) - http://www.bohemiancoding.com/sketch -->
    <title>desktop</title>
    <desc>Created with Sketch.</desc>
    <defs></defs>
    <g id="Switch-JIRA_NTU_2" stroke="none" stroke-width="1" fill="none" fill-rule="evenodd">
        <g id="Desktop_Select-between-new-or-old-experience" transform="translate(-390.000000, -468.000000)" fill-rule="nonzero" fill="#4E4F65">
            <g id="new-experience-copy" transform="translate(308.000000, 392.000000)">
                <g id="desktop" transform="translate(82.000000, 76.000000)">
                    <path d="M89.6,49.4807692 L89.6,7.98076923 C89.6,7.54847756 89.4416667,7.17437901 89.125,6.85847356 C88.8083333,6.54256811 88.4333333,6.38461538 88,6.38461538 L8,6.38461538 C7.56666667,6.38461538 7.19166667,6.54256811 6.875,6.85847356 C6.55833333,7.17437901 6.4,7.54847756 6.4,7.98076923 L6.4,49.4807692 C6.4,49.9130609 6.55833333,50.2871595 6.875,50.6030649 C7.19166667,50.9189704 7.56666667,51.0769231 8,51.0769231 L88,51.0769231 C88.4333333,51.0769231 88.8083333,50.9189704 89.125,50.6030649 C89.4416667,50.2871595 89.6,49.9130609 89.6,49.4807692 Z M96,7.98076923 L96,62.25 C96,64.4447115 95.2166667,66.3235176 93.65,67.8864183 C92.0833333,69.4493189 90.2,70.2307692 88,70.2307692 L60.8,70.2307692 C60.8,71.4611378 61.0666667,72.7496995 61.6,74.0964543 C62.1333333,75.4432091 62.6666667,76.6236979 63.2,77.6379207 C63.7333333,78.6521434 64,79.3754006 64,79.8076923 C64,80.6722756 63.6833333,81.4204728 63.05,82.0522837 C62.4166667,82.6840946 61.6666667,83 60.8,83 L35.2,83 C34.3333333,83 33.5833333,82.6840946 32.95,82.0522837 C32.3166667,81.4204728 32,80.6722756 32,79.8076923 C32,79.3421474 32.2666667,78.6105769 32.8,77.6129808 C33.3333333,76.6153846 33.8666667,75.4515224 34.4,74.1213942 C34.9333333,72.791266 35.2,71.494391 35.2,70.2307692 L8,70.2307692 C5.8,70.2307692 3.91666667,69.4493189 2.35,67.8864183 C0.783333333,66.3235176 0,64.4447115 0,62.25 L0,7.98076923 C0,5.78605769 0.783333333,3.9072516 2.35,2.34435096 C3.91666667,0.781450321 5.8,0 8,0 L88,0 C90.2,0 92.0833333,0.781450321 93.65,2.34435096 C95.2166667,3.9072516 96,5.78605769 96,7.98076923 Z" id="Shape"></path>
                </g>
            </g>
        </g>
    </g>
</svg>