<?xml version="1.0" encoding="UTF-8"?>
<svg width="29px" height="48px" viewBox="0 0 29 48" version="1.1" xmlns="http://www.w3.org/2000/svg" xmlns:xlink="http://www.w3.org/1999/xlink">
    <!-- Generator: Sketch 43.2 (39069) - http://www.bohemiancoding.com/sketch -->
    <title>mobile</title>
    <desc>Created with Sketch.</desc>
    <defs></defs>
    <g id="Switch-JIRA_NTU_2" stroke="none" stroke-width="1" fill="none" fill-rule="evenodd">
        <g id="Desktop_Select-between-new-or-old-experience" transform="translate(-579.000000, -496.000000)" fill-rule="nonzero" fill="#D20061">
            <g id="new-experience-copy" transform="translate(308.000000, 392.000000)">
                <g id="mobile" transform="translate(271.000000, 104.000000)">
                    <path d="M17.5208333,43.2 C17.5208333,42.375 17.2250434,41.66875 16.6334635,41.08125 C16.0418837,40.49375 15.3307292,40.2 14.5,40.2 C13.6692708,40.2 12.9581163,40.49375 12.3665365,41.08125 C11.7749566,41.66875 11.4791667,42.375 11.4791667,43.2 C11.4791667,44.025 11.7749566,44.73125 12.3665365,45.31875 C12.9581163,45.90625 13.6692708,46.2 14.5,46.2 C15.3307292,46.2 16.0418837,45.90625 16.6334635,45.31875 C17.2250434,44.73125 17.5208333,44.025 17.5208333,43.2 Z M25.375,37.2 L25.375,10.8 C25.375,10.475 25.2554253,10.19375 25.016276,9.95625 C24.7771267,9.71875 24.4939236,9.6 24.1666667,9.6 L4.83333333,9.6 C4.50607639,9.6 4.22287326,9.71875 3.98372396,9.95625 C3.74457465,10.19375 3.625,10.475 3.625,10.8 L3.625,37.2 C3.625,37.525 3.74457465,37.80625 3.98372396,38.04375 C4.22287326,38.28125 4.50607639,38.4 4.83333333,38.4 L24.1666667,38.4 C24.4939236,38.4 24.7771267,38.28125 25.016276,38.04375 C25.2554253,37.80625 25.375,37.525 25.375,37.2 Z M18.125,5.4 C18.125,5 17.9236111,4.8 17.5208333,4.8 L11.4791667,4.8 C11.0763889,4.8 10.875,5 10.875,5.4 C10.875,5.8 11.0763889,6 11.4791667,6 L17.5208333,6 C17.9236111,6 18.125,5.8 18.125,5.4 Z M29,4.8 L29,43.2 C29,44.5 28.5217014,45.625 27.5651042,46.575 C26.6085069,47.525 25.4756944,48 24.1666667,48 L4.83333333,48 C3.52430556,48 2.39149306,47.525 1.43489583,46.575 C0.478298611,45.625 0,44.5 0,43.2 L0,4.8 C0,3.5 0.478298611,2.375 1.43489583,1.425 C2.39149306,0.475 3.52430556,0 4.83333333,0 L24.1666667,0 C25.4756944,0 26.6085069,0.475 27.5651042,1.425 C28.5217014,2.375 29,3.5 29,4.8 Z" id="Shape"></path>
                </g>
            </g>
        </g>
    </g>
</svg>