<?xml version="1.0" encoding="UTF-8"?>
<svg width="56px" height="69px" viewBox="0 0 56 69" version="1.1" xmlns="http://www.w3.org/2000/svg" xmlns:xlink="http://www.w3.org/1999/xlink">
    <!-- Generator: Sketch 43.2 (39069) - http://www.bohemiancoding.com/sketch -->
    <title>tablet</title>
    <desc>Created with Sketch.</desc>
    <defs></defs>
    <g id="Switch-JIRA_NTU_2" stroke="none" stroke-width="1" fill="none" fill-rule="evenodd">
        <g id="Desktop_Select-between-new-or-old-experience" transform="translate(-503.000000, -475.000000)" fill-rule="nonzero" fill="#D20061">
            <g id="new-experience-copy" transform="translate(308.000000, 392.000000)">
                <g id="tablet" transform="translate(195.000000, 83.000000)">
                    <path d="M31.1111111,62.7272727 C31.1111111,61.8778409 30.8032407,61.1427557 30.1875,60.522017 C29.5717593,59.9012784 28.8425926,59.5909091 28,59.5909091 C27.1574074,59.5909091 26.4282407,59.9012784 25.8125,60.522017 C25.1967593,61.1427557 24.8888889,61.8778409 24.8888889,62.7272727 C24.8888889,63.5767045 25.1967593,64.3117898 25.8125,64.9325284 C26.4282407,65.553267 27.1574074,65.8636364 28,65.8636364 C28.8425926,65.8636364 29.5717593,65.553267 30.1875,64.9325284 C30.8032407,64.3117898 31.1111111,63.5767045 31.1111111,62.7272727 Z M49.7777778,54.8863636 L49.7777778,7.84090909 C49.7777778,7.41619318 49.6238426,7.04865057 49.3159722,6.73828125 C49.0081019,6.42791193 48.6435185,6.27272727 48.2222222,6.27272727 L7.77777778,6.27272727 C7.35648148,6.27272727 6.99189815,6.42791193 6.68402778,6.73828125 C6.37615741,7.04865057 6.22222222,7.41619318 6.22222222,7.84090909 L6.22222222,54.8863636 C6.22222222,55.3110795 6.37615741,55.6786222 6.68402778,55.9889915 C6.99189815,56.2993608 7.35648148,56.4545455 7.77777778,56.4545455 L48.2222222,56.4545455 C48.6435185,56.4545455 49.0081019,56.2993608 49.3159722,55.9889915 C49.6238426,55.6786222 49.7777778,55.3110795 49.7777778,54.8863636 Z M56,7.84090909 L56,61.1590909 C56,63.3153409 55.2384259,65.1612216 53.7152778,66.696733 C52.1921296,68.2322443 50.3611111,69 48.2222222,69 L7.77777778,69 C5.63888889,69 3.80787037,68.2322443 2.28472222,66.696733 C0.761574074,65.1612216 0,63.3153409 0,61.1590909 L0,7.84090909 C0,5.68465909 0.761574074,3.83877841 2.28472222,2.30326705 C3.80787037,0.767755682 5.63888889,0 7.77777778,0 L48.2222222,0 C50.3611111,0 52.1921296,0.767755682 53.7152778,2.30326705 C55.2384259,3.83877841 56,5.68465909 56,7.84090909 Z" id="Shape"></path>
                </g>
            </g>
        </g>
    </g>
</svg>